<svg xmlns="http://www.w3.org/2000/svg" xmlns:xlink="http://www.w3.org/1999/xlink" width="180" height="180" viewBox="0 0 180 180">
  <defs>
    <style>
      .cls-1 {
        clip-path: url(#clip-apple-touch-icon);
      }

      .cls-2 {
        fill: #fff;
      }
    </style>
    <clipPath id="clip-apple-touch-icon">
      <rect width="180" height="180"/>
    </clipPath>
  </defs>
  <g id="apple-touch-icon" class="cls-1">
    <rect class="cls-2" width="180" height="180"/>
    <path id="Path_2" data-name="Path 2" d="M142.145-343.181a232.662,232.662,0,0,0-23.553,11.043,64.246,64.246,0,0,0-13.675,9.734A62.526,62.526,0,0,0,95.2-308.826a233.791,233.791,0,0,0-11.185,23.967H80.67A243.6,243.6,0,0,0,69.4-308.826,64.439,64.439,0,0,0,59.77-322.4,64.246,64.246,0,0,0,46.1-332.139a229.671,229.671,0,0,0-23.635-11.043v-3.354a226.811,226.811,0,0,0,23.716-11.043,62.116,62.116,0,0,0,13.593-9.734A64.44,64.44,0,0,0,69.4-380.891,243.607,243.607,0,0,0,80.67-404.858h3.347A233.8,233.8,0,0,0,95.2-380.891a62.527,62.527,0,0,0,9.715,13.579,60.084,60.084,0,0,0,13.511,9.734,226.811,226.811,0,0,0,23.716,11.043Z" transform="translate(7.539 434.858)"/>
  </g>
</svg>
