<svg xmlns="http://www.w3.org/2000/svg" xmlns:xlink="http://www.w3.org/1999/xlink" width="512" height="512" viewBox="0 0 512 512">
  <defs>
    <style>
      .cls-1 {
        clip-path: url(#clip-icon-512);
      }

      .cls-2 {
        fill: #fff;
      }
    </style>
    <clipPath id="clip-icon-512">
      <rect width="512" height="512"/>
    </clipPath>
  </defs>
  <g id="icon-512" class="cls-1">
    <rect class="cls-2" width="512" height="512"/>
    <path id="Path_2" data-name="Path 2" d="M358.232-232.163q-41.456,17.178-66.078,30.92T253.79-173.987q-13.513,13.513-27.256,38.02T195.156-68.858h-9.391q-17.865-42.6-31.607-67.108t-27.027-38.02Q113.389-187.5,88.768-201.243t-66.307-30.92v-9.391Q64.375-258.732,89-272.474t38.135-27.256q13.284-13.513,27.027-38.021t31.607-67.108h9.391q17.636,42.6,31.378,67.108T253.79-299.73q13.284,13.513,37.906,27.256t66.536,30.92Z" transform="translate(65.539 492.858)"/>
  </g>
</svg>
