<svg xmlns="http://www.w3.org/2000/svg" viewBox="0 0 32 32">
  <style>
    path {
      fill: black;
    }
    @media (prefers-color-scheme: dark) {
      path {
        fill: white;
      }
    }
  </style>
  <path d="M28,16.34a43.26,43.26,0,0,0-4.73,2.21,13.08,13.08,0,0,0-2.74,1.94,12.71,12.71,0,0,0-1.94,2.72A46.44,46.44,0,0,0,16.34,28h-.67a46.51,46.51,0,0,0-2.26-4.79,12.66,12.66,0,0,0-1.93-2.72,12.87,12.87,0,0,0-2.74-1.95A48.56,48.56,0,0,0,4,16.33v-.67a44.6,44.6,0,0,0,4.76-2.21,12.14,12.14,0,0,0,2.72-1.94,12.66,12.66,0,0,0,1.93-2.72A46.51,46.51,0,0,0,15.67,4h.66a46.44,46.44,0,0,0,2.25,4.79,12.5,12.5,0,0,0,2,2.72,12.12,12.12,0,0,0,2.71,2A48.9,48.9,0,0,0,28,15.67Z" />
</svg>