<svg xmlns="http://www.w3.org/2000/svg" xmlns:xlink="http://www.w3.org/1999/xlink" width="192" height="192" viewBox="0 0 192 192">
  <defs>
    <style>
      .cls-1 {
        clip-path: url(#clip-icon-192);
      }

      .cls-2 {
        fill: #fff;
      }
    </style>
    <clipPath id="clip-icon-192">
      <rect width="192" height="192"/>
    </clipPath>
  </defs>
  <g id="icon-192" class="cls-1">
    <rect class="cls-2" width="192" height="192"/>
    <path id="Path_2" data-name="Path 2" d="M142.175-343.181a232.744,232.744,0,0,0-23.559,11.043,64.262,64.262,0,0,0-13.678,9.734,62.526,62.526,0,0,0-9.718,13.579,233.761,233.761,0,0,0-11.187,23.967H80.685a243.566,243.566,0,0,0-11.269-23.967A64.439,64.439,0,0,0,59.78-322.4,64.261,64.261,0,0,0,46.1-332.139a229.753,229.753,0,0,0-23.641-11.043v-3.354a226.894,226.894,0,0,0,23.722-11.043,62.132,62.132,0,0,0,13.6-9.734,64.439,64.439,0,0,0,9.636-13.579,243.564,243.564,0,0,0,11.269-23.967h3.348A233.759,233.759,0,0,0,95.22-380.891a62.526,62.526,0,0,0,9.718,13.579,60.1,60.1,0,0,0,13.515,9.734,226.89,226.89,0,0,0,23.722,11.043Z" transform="translate(13.539 440.858)"/>
  </g>
</svg>
